<?xml version="1.0" encoding="UTF-8"?> <svg xmlns="http://www.w3.org/2000/svg" width="309" height="157" viewBox="0 0 309 157" fill="none"><g clip-path="url(#clip0_663_13)"><path d="M132.684 47.8919C130.86 61.0355 118.325 70.9349 104.568 70.9349C89.2038 70.9349 76.25 57.9921 76.25 42.0392C76.25 26.0864 89.1871 13.7455 104.568 13.7455C113.471 13.7455 122.174 17.5916 126.609 24.247H143.195C136.333 9.89945 121.772 0 104.568 0C81.5052 0 62.292 18.9962 62.292 42.0392C62.292 65.0822 81.5052 84.6805 104.568 84.6805C130.86 84.6805 151.697 60.6342 146.442 34.3638H99.1116V47.9087H132.684V47.8919ZM308.866 82.6571H251.227V34.3638H301.385V47.9087H265.386V68.9283H308.866V82.6738V82.6571ZM308.866 15.5682H251.227V1.8227H308.866V15.5682ZM198.424 70.9349C183.06 70.9349 170.106 57.9921 170.106 42.0392C170.106 26.0864 183.044 13.7455 198.424 13.7455C213.805 13.7455 227.143 26.471 227.143 42.0392C227.143 57.6075 214.206 70.9349 198.424 70.9349ZM198.424 0C175.362 0 156.149 18.9962 156.149 42.0392C156.149 65.0822 175.362 84.6805 198.424 84.6805C221.487 84.6805 241.101 65.6842 241.101 42.0392C241.101 18.3943 222.089 0 198.424 0ZM57.6394 15.5682V1.8227H0V82.6571H57.6394V68.9116H14.1588V47.8919H50.1583V34.3471H14.1588V15.5515H57.6394V15.5682Z" fill="white"></path><path d="M191.11 131.97C191.11 136.653 190.14 140.382 188.366 142.907C186.592 145.432 184.064 146.803 180.834 146.803C176.182 146.803 173.236 143.726 173.219 138.877V113.559H163.128V140.883C163.128 145.381 164.667 149.177 167.345 151.836C170.04 154.495 173.855 156.017 178.424 156C183.479 156 187.997 153.809 191.11 149.963V155.348H201.202V113.543H191.11V131.954V131.97Z" fill="white"></path><path d="M209.202 155.365H209.436H219.277V97.1718H209.202V155.365Z" fill="white"></path><path d="M232.365 95.4829C230.574 95.4829 229.001 96.1685 227.88 97.3056C226.758 98.4427 226.072 100.048 226.072 101.837C226.072 103.593 226.758 105.165 227.897 106.302C229.035 107.439 230.608 108.125 232.365 108.125C234.173 108.125 235.779 107.439 236.951 106.302C238.106 105.165 238.825 103.593 238.825 101.837C238.825 100.031 238.139 98.4427 236.984 97.2889C235.829 96.1518 234.206 95.4662 232.382 95.4662L232.365 95.4829Z" fill="white"></path><path d="M227.361 155.365H227.595H237.453V113.559H227.361V155.365Z" fill="white"></path><path d="M268.331 145.983C266.691 146.769 264.733 146.886 263.712 146.886C262.139 146.886 260.934 146.385 260.114 145.482C259.294 144.562 258.842 143.208 258.842 141.452V122.355H269.285V113.559H258.842V101.52H248.75V113.559H241.67V122.355H248.75V141.937C248.75 146.318 250.055 149.846 252.465 152.271C254.875 154.696 258.39 156.017 262.758 156.017C265.134 156.017 267.427 155.666 269.402 155.013L269.72 154.913L269.888 154.863L269.218 145.599L268.348 146.017L268.331 145.983Z" fill="white"></path><path d="M304.13 117.372C301 114.496 296.498 112.924 290.958 112.924C281.871 112.924 274.825 118.442 273.503 126.653L273.436 127.071L273.402 127.305L282.607 128.994L282.691 128.292C283.226 123.877 286.339 121.185 290.958 121.168C293.486 121.168 295.511 121.887 296.9 123.158C298.272 124.412 299.042 126.235 299.059 128.509L292.013 129.245C285.586 129.914 280.8 131.385 277.586 133.726C274.373 136.067 272.766 139.311 272.783 143.392C272.783 147.054 274.289 150.214 276.816 152.455C279.36 154.696 282.908 156.017 287.025 156.017C291.812 156.017 296.314 153.943 299.059 150.599V155.381H308.983V129.496C308.983 124.412 307.259 120.248 304.13 117.389V117.372ZM299.075 137.271C298.975 143.793 294.992 147.923 288.799 147.94C285.084 147.94 282.708 146 282.708 143.141C282.708 141.552 283.494 140.248 285.084 139.211C286.657 138.191 289.034 137.455 292.097 137.121L299.075 136.318V137.255V137.271Z" fill="white"></path></g><defs><clipPath id="clip0_663_13"><rect width="309" height="156" fill="white"></rect></clipPath></defs></svg> 